<?xml version="1.0" encoding="UTF-8" standalone="no"?>
<!-- Created with Inkscape (http://www.inkscape.org/) -->

<svg
   xmlns:dc="http://purl.org/dc/elements/1.1/"
   xmlns:cc="http://creativecommons.org/ns#"
   xmlns:rdf="http://www.w3.org/1999/02/22-rdf-syntax-ns#"
   xmlns:svg="http://www.w3.org/2000/svg"
   xmlns="http://www.w3.org/2000/svg"
   xmlns:sodipodi="http://sodipodi.sourceforge.net/DTD/sodipodi-0.dtd"
   xmlns:inkscape="http://www.inkscape.org/namespaces/inkscape"
   id="svg5288"
   version="1.1"
   inkscape:version="0.48.4 r9939"
   width="2560"
   height="1920"
   sodipodi:docname="irakurri.jpg.svg">
  <metadata
     id="metadata5294">
    <rdf:RDF>
      <cc:Work
         rdf:about="">
        <dc:format>image/svg+xml</dc:format>
        <dc:type
           rdf:resource="http://purl.org/dc/dcmitype/StillImage" />
        <dc:title />
      </cc:Work>
    </rdf:RDF>
  </metadata>
  <defs
     id="defs5292" />
  <sodipodi:namedview
     pagecolor="#ffffff"
     bordercolor="#666666"
     borderopacity="1"
     objecttolerance="10"
     gridtolerance="10"
     guidetolerance="10"
     inkscape:pageopacity="0"
     inkscape:pageshadow="2"
     inkscape:window-width="698"
     inkscape:window-height="1029"
     id="namedview5290"
     showgrid="false"
     showguides="true"
     inkscape:guide-bbox="true"
     inkscape:zoom="0.12184572"
     inkscape:cx="1122.0899"
     inkscape:cy="1111.0053"
     inkscape:window-x="0"
     inkscape:window-y="19"
     inkscape:window-maximized="0"
     inkscape:current-layer="svg5288" />
  <path
     style="fill:#000000;stroke:none"
     d="m 193.59432,321.1183 c -1.9531,-19.72929 19.18602,-35.89339 34.57042,-48.39858 12.21164,-9.92622 27.81277,-15.77548 43.21302,-19.01373 17.47914,-3.67539 35.86261,-2.23079 53.58414,0 25.37304,3.19396 50.01517,11.07916 74.32639,19.01373 11.79866,3.85078 22.77468,9.96847 34.57042,13.82817 28.55557,9.34371 60.64422,8.58868 87.2903,22.47077 11.77763,6.13592 18.69273,19.3847 30.24911,25.92781 14.2697,8.07937 31.62955,9.02342 46.67006,15.55668 27.66781,12.01827 56.68612,23.49178 79.51196,43.21302 10.89964,9.41716 24.75793,20.21366 25.92781,34.57042 1.21398,14.89786 -15.20366,25.87276 -20.74225,39.75598 -7.77141,19.48007 -4.18127,44.12278 -17.28521,60.49822 -4.5107,5.63683 -19.01373,10.37113 -19.01373,10.37113 -7.32273,137.22504 29.97682,299.94853 -34.57041,404.47385 0,0 69.26352,-14.43509 103.71124,-22.47077 46.27025,-10.79355 93.18835,-19.60276 138.28166,-34.57041 42.01509,-13.94591 73.25589,-38.37775 122.5302,-51.22652 80.46375,-20.98174 119.97395,-6.92453 158.79925,9.74202 22.243,9.54827 47.0998,14.73154 71.2888,13.82817 13.1296,-0.49034 25.0049,-8.62718 38.0274,-10.37113 10.2794,-1.3766 21.1873,3.00539 31.1134,0 9.9414,-3.01002 16.9288,-12.09778 25.9278,-17.28521 38.3977,-22.1341 76.726,-46.34077 119.268,-58.7697 10.0162,-2.9263 22.6229,2.60925 31.1133,-3.45704 88.6148,-63.31392 190.3097,-171.67494 323.3383,-138.36853 0,0 2.1266,-23.61969 16.674,-45.57065 6.1906,-9.34113 -7e-4,-15.65978 3.4355,-22.27698 3.4362,-6.61721 8.8839,-7.4755 9.1705,-15.54077 1.0581,-29.77191 19.4416,-62.78131 42.8295,-83.59811 30.394,-27.05266 82.4961,-47.30068 114.361,-42.68875 5.2573,0.7609 3.1923,-7.54357 13.933,-7.31551 11.2561,0.239 7.0096,8.80904 12.0997,9.65515 92.4829,15.37316 138.7398,111.58508 130.5467,139.80047 l 73.907,51.64592 c 22.7795,27.45485 -9.5876,48.05591 -28.7557,45.57066 -22.2843,-2.88929 -44.6199,-20.28388 -65.2824,-28.98344 0,0 -16.8659,16.16781 -18.804,21.85965 -2.2741,13.80439 3.765,53.43017 -6.9141,58.7697 -8.257,3.46147 -17.7821,3.11853 -27.6563,1.72852 -6.0949,7.07648 -9.1555,13.44653 -9.2538,18.27977 0,0 0.561,8.11198 -2.9626,10.8933 -3.5237,2.78132 -5.6319,2.06534 -7.3037,5.18764 -1.5358,2.8683 0.6236,7.13311 -1.4319,9.65516 -3.3745,4.14036 -10.5227,2.66642 -15.0504,5.50012 -14.3011,8.95054 -20.1092,30.7907 -36.4038,35.16354 -16.1196,4.32588 -31.9025,-12.34616 -48.5903,-12.08166 -7.4682,0.11837 -21.5631,6.09326 -21.5631,6.09326 -4.3643,71.01059 -16.1846,142.92554 -28.6689,209.06416 21.2822,0.7119 73.6189,2.702 112.3539,-7.43835 23.5054,-6.15345 74.1346,-19.10059 74.1346,-19.10059 l -19.7296,-21.26652 241.2769,-174.26604 43.3179,36.10722 21.0388,-15.46982 12.1955,6.76425 21.9735,64.20995 -177.0251,134.2135 c 0,0 8.0413,20.4451 -4.889,32.5454 -8.109,7.5885 -22.0603,7.7661 -28.9655,16.4643 -10.0882,12.7077 -6.362,32.2648 -13.8281,46.6701 -6.4181,12.3833 -13.6791,26.1706 -25.9278,32.8419 -21.3478,11.6271 -48.5056,3.6767 -72.5979,6.914 -106.6488,14.3305 -208.184,63.0097 -318.0478,55.3127 -18.4662,-7.7184 -24.1106,-18.7287 -31.1134,-39.756 0,0 -188.2904,23.6614 -283.4774,36.5955 -77.5794,10.5416 -184.2351,14.7069 -256.1356,-4.9758 -7.0087,-1.9187 -4.871,-21.2485 -4.871,-21.2485 -134.817,41.8202 -438.75153,60.3332 -594.61117,82.9689 -5.70191,0.8281 0,-17.2852 0,-17.2852 0,0 -116.25767,27.1784 -167.66651,5.1856 -27.75931,-11.8755 -53.75872,-37.9813 -60.49823,-67.4123 -33.5661,-146.5811 116.3221,-365.80302 117.53941,-554.85517 0.22296,-34.62672 -20.21798,-101.89586 -20.21798,-101.89586 0,0 -8.36785,3.7135 -10.28427,0.85681 -6.85853,-10.22366 -11.22596,-19.39762 -17.40805,-28.24201 -2.97406,-4.25484 6.4258,-14.18616 6.4258,-14.18616 0,0 -37.62989,-37.424 -57.73917,-54.70155 -4.68695,-4.02695 -8.60839,-10.00095 -14.63101,-11.38366 -4.68582,-1.0758 -9.43047,4.12132 -14.10674,3.00473 -12.02058,-2.87023 -18.00923,-15.29199 -28.86059,-23.2736 -2.28688,-1.68209 3.04102,-5.78336 1.78249,-8.32804 -3.9715,-8.03017 -9.08326,-5.49015 -24.30042,-11.4803 -6.83387,-2.69012 -5.88631,-14.03922 -11.4668,-18.8138 -5.99011,-5.12505 -15.59993,-4.23893 -21.85593,-9.0358 -3.95165,-3.02998 -4.41151,-10.15871 -9.09458,-11.85139 -9.80958,-3.54564 -20.45433,9.64288 -30.52008,6.90791 -5.37351,-1.46003 -11.63779,-5.88457 -12.18635,-11.42581 z"
     id="path5300"
     inkscape:connector-curvature="0"
     sodipodi:nodetypes="aaaaaaaaaaaaaccaassaaaaascsssasssccscccccssaaaaccsccccccccsaaaaccsscscasacsscaaasasaaaaa" />
</svg>
