<?xml version="1.0" encoding="UTF-8" standalone="no"?>
<!-- Created with Inkscape (http://www.inkscape.org/) -->

<svg
   xmlns:dc="http://purl.org/dc/elements/1.1/"
   xmlns:cc="http://creativecommons.org/ns#"
   xmlns:rdf="http://www.w3.org/1999/02/22-rdf-syntax-ns#"
   xmlns:svg="http://www.w3.org/2000/svg"
   xmlns="http://www.w3.org/2000/svg"
   xmlns:sodipodi="http://sodipodi.sourceforge.net/DTD/sodipodi-0.dtd"
   xmlns:inkscape="http://www.inkscape.org/namespaces/inkscape"
   id="svg5441"
   version="1.1"
   inkscape:version="0.48.4 r9939"
   width="1920"
   height="2560"
   sodipodi:docname="pentsatu.svg">
  <metadata
     id="metadata5447">
    <rdf:RDF>
      <cc:Work
         rdf:about="">
        <dc:format>image/svg+xml</dc:format>
        <dc:type
           rdf:resource="http://purl.org/dc/dcmitype/StillImage" />
        <dc:title></dc:title>
      </cc:Work>
    </rdf:RDF>
  </metadata>
  <defs
     id="defs5445" />
  <sodipodi:namedview
     pagecolor="#ffffff"
     bordercolor="#666666"
     borderopacity="1"
     objecttolerance="10"
     gridtolerance="10"
     guidetolerance="10"
     inkscape:pageopacity="0"
     inkscape:pageshadow="2"
     inkscape:window-width="1398"
     inkscape:window-height="1029"
     id="namedview5443"
     showgrid="false"
     inkscape:zoom="0.076702881"
     inkscape:cx="-122.02718"
     inkscape:cy="1299.585"
     inkscape:window-x="0"
     inkscape:window-y="19"
     inkscape:window-maximized="0"
     inkscape:current-layer="svg5441" />
  <path
     style="fill:#000000;stroke:#ff0000;stroke-width:1px;stroke-linecap:butt;stroke-linejoin:miter;stroke-opacity:1"
     d="m 1892.9647,1125.8667 c -13.6735,-52.0579 -65.1737,-124.5937 -74.2586,-143.38242 -42.8513,-88.62176 -97.1305,-148.55739 -202.6376,-200.99396 -32.3266,-16.06617 21.7837,-71.10062 17.2513,-106.91386 -10.3061,-81.43355 -44.9157,-162.86999 -98.5538,-225.66765 -13.1161,-15.35578 -24.2961,-32.44434 -38.7335,-46.58526 -20.1126,-19.69962 -40.1759,-36.80123 -65.1866,-45.63062 -39.751,-14.03305 -71.0657,-10.29348 -92.9898,6.69941 -69.4315,53.81485 -130.6372,106.43203 -235.8071,168.36674 -10.9566,6.45234 -15.2543,20.35333 -23.2108,30.27164 -14.0552,17.52069 -58.1021,7.43968 -43.309,51.62399 59.94,131.76323 163.6787,281.99092 235.6095,342.75493 2.3188,1.65631 -36.1651,29.28608 -57.1907,28.54269 -14.0801,-0.49782 -10.2747,8.31253 -30.7924,14.20486 -14.9741,4.30031 -24.5015,-2.19942 -47.3174,6.81451 -20.2513,8.0009 -39.4066,14.6891 -53.7577,20.2 -13.5395,5.1992 -29.4796,-3.1111 -43.5065,0.5762 -6.6974,1.7605 -11.6549,7.7813 -18.223,9.9757 -73.70318,24.6239 -159.18091,29.1781 -264.18644,153.1885 -9.16637,10.8254 -23.97887,15.4077 -34.46865,24.9563 -17.48471,15.9159 -28.25738,38.6316 -46.79993,53.3015 -8.57773,6.7863 -18.60945,11.9099 -28.97671,15.3957 -12.22473,4.1103 -27.30356,-0.73 -38.19548,6.1769 -3.0363,1.9254 -3.41632,6.5018 -6.0978,8.8968 -3.49244,3.1193 -8.98581,3.391 -12.40748,6.5878 -5.19381,4.8524 -6.38415,12.9349 -11.25513,18.1113 -2.82914,3.0066 -7.32567,4.1094 -10.10278,7.1641 -6.2911,6.9199 -9.08782,16.3549 -13.98208,24.3242 -5.55274,9.0415 -16.05023,16.1099 -17.43913,26.629 -1.61178,12.2071 11.52347,35.0957 11.52347,35.0957 0,0 -15.19733,48.2557 -14.20663,73.0383 0.32283,8.0757 2.05114,16.6169 6.51442,23.3548 4.51656,6.8183 19.19025,15.2883 19.19025,15.2883 0,0 4.40087,17.7494 10.54763,23.9309 3.16108,3.1789 12.27615,5.4935 12.27615,5.4935 0,0 -29.07759,41.3515 -48.92387,56.3462 -11.6572,8.8075 -39.68813,18.6014 -39.68813,18.6014 0,0 -98.88865,-25.3859 -124.05225,-89.9112 -5.96432,-15.2939 -24.29221,-26.5291 -40.65973,-27.7862 -12.06847,-0.9268 -27.11761,4.9597 -32.75709,15.6696 -23.31008,44.2682 1.43741,103.2415 23.21073,148.2855 19.52194,40.3864 91.26124,98.8983 91.26124,98.8983 -6.94212,5.6076 -15.63296,13.3945 -17.25129,22.7814 -3.05391,17.7138 7.61286,35.6616 16.2797,51.4093 8.37819,15.2233 33.56489,39.8859 33.56489,39.8859 0,0 -88.92713,15.1578 -133.63253,13.0373 -39.79974,-1.8878 -78.68256,-32.485 -117.33588,-22.8153 -21.72802,5.4356 -43.68903,21.633 -52.14928,42.3713 -14.45688,35.4376 -5.37333,80.5225 13.03732,114.0765 26.07572,47.5239 81.35358,72.1538 126.35695,102.3723 50.48004,33.896 180.02007,21.4822 180.02007,21.4822 20.49078,0.1896 33.77913,9.3821 35.85263,32.5933 -2.4029,17.0403 6.36853,15.4567 12.65886,18.0083 0,0 66.77383,21.317 98.15836,11.3257 24.53677,-7.8113 40.39464,-32.3411 57.49863,-51.5901 34.892,-39.2677 49.89864,-92.045 90.71899,-128.8593 63.77497,-57.5163 159.44635,-91.4631 193.22118,-170.4228 6.91738,-16.1716 -7.87623,-36.1155 -2.09002,-52.7255 4.32259,-12.4085 21.01934,-17.6138 25.69618,-29.8932 3.73285,-9.8008 -7.64509,-24.9249 0.55921,-31.4579 32.75105,-26.0792 67.98215,-58.2015 75.17925,-83.048 2.9136,-10.0584 22.0414,-22.3859 22.0414,-22.3859 0,0 144.5675,298.8053 254.2278,420.4535 37.3907,41.4782 89.404,66.946 133.6325,101.0393 19.5598,15.0776 30.9802,27.6993 58.2556,45.7774 10.867,7.2027 84.8985,-32.9973 124.2669,-55.5554 16.2181,-9.293 29.1568,-23.7616 45.6306,-32.5933 21.5176,-11.5358 45.5296,-17.6529 68.4459,-26.0747 51.9278,-19.0835 121.286,-12.6966 156.4479,-55.4086 18.8473,-22.8943 11.3889,-58.3936 13.0373,-88.0019 15.5314,-278.9728 40.9407,-567.4376 -30.04,-837.6759 z"
     id="path5470"
     inkscape:connector-curvature="0"
     sodipodi:nodetypes="assasssssaccssssassaaaaaaaaaacaacacacsaaacaacaaaascccaasaaasscaasaaaaaa" />
</svg>
